# xmcd CD database file generated by Grip 2.91
# 
# Track frame offsets:
#       150
#       20965
#       34657
#       49890
#       69922
#       96252
#       116737
#       137785
#       165080
#       187940
#       223882
#       257820
# 
# Disc length: 4546 seconds
# 
# Revision: 3
# Processed by: cddbd v1.4b41PL1 Copyright (c) Steve Scherf et al.
# Submitted via: Grip 2.91
# 
DISCID=ab11c00c
DTITLE=Angel - Angel Sings Janis "Live"
DYEAR=1900
DGENRE=
TTITLE0=Move Over
TTITLE1=Down on me
TTITLE2=Get it while you can
TTITLE3=Piece of my heart
TTITLE4=Me and Bobby McGee
TTITLE5=Cry Baby
TTITLE6=Mercedez
TTITLE7=Summertime
TTITLE8=Half Moon
TTITLE9=As good as you've been
TTITLE10=Try
TTITLE11=Ball and chain
EXTD=
EXTT0=
EXTT1=
EXTT2=
EXTT3=
EXTT4=
EXTT5=
EXTT6=
EXTT7=
EXTT8=
EXTT9=
EXTT10=
EXTT11=
PLAYORDER=
